<svg class="svg-icon" style="width: 1em; height: 1em;vertical-align: middle;fill: currentColor;overflow: hidden;" viewBox="0 0 1024 1024" version="1.1" xmlns="http://www.w3.org/2000/svg"><path d="M512 1024C229.224296 1024 0 794.775704 0 512S229.224296 0 512 0s512 229.224296 512 512-229.224296 512-512 512zM175.104 335.303111V718.317037h58.481778v-149.143704h99.233185c91.742815 0 137.860741-39.158519 137.860741-117.475555 0-77.786074-45.586963-116.432593-136.779852-116.432593H175.104z m58.481778 49.872593h95.478518c28.444444 0 49.360593 5.385481 62.767408 16.118518 13.406815 9.652148 20.385185 26.81363 20.385185 50.422519 0 23.589926-6.97837 40.77037-19.854222 51.484444-13.406815 10.733037-34.322963 16.118519-63.298371 16.118519h-95.478518v-134.125037z m534.831407-49.872593l-185.078518 185.078519v-185.078519H524.894815V718.317037h58.462815v-132.513185l49.891555-47.748741 155.572148 180.261926h78.317037l-194.18074-218.339556 169.528889-164.693333h-74.050371z"  /></svg>